<svg width="208" height="208" viewBox="0 0 208 208" fill="none" xmlns="http://www.w3.org/2000/svg">
<rect width="208" height="208" fill="#E5E5E5"/>
<rect x="-249" y="-269" width="1440" height="1024" rx="50" fill="#FEC260"/>
<g filter="url(#filter0_d)">
<path d="M204 100C204 80.2219 198.135 60.8879 187.147 44.443C176.159 27.9981 160.541 15.1808 142.268 7.61205C123.996 0.0432834 103.889 -1.93705 84.491 1.92147C65.0929 5.77999 47.2746 15.3041 33.2893 29.2893C19.3041 43.2746 9.77999 61.0929 5.92147 80.491C2.06295 99.8891 4.04328 119.996 11.612 138.268C19.1808 156.541 31.9981 172.159 48.443 183.147C64.8879 194.135 84.2219 200 104 200V100H204Z" fill="#A12568"/>
</g>
<defs>
<filter id="filter0_d" x="-3.05176e-05" y="-6.10352e-05" width="208" height="208" filterUnits="userSpaceOnUse" color-interpolation-filters="sRGB">
<feFlood flood-opacity="0" result="BackgroundImageFix"/>
<feColorMatrix in="SourceAlpha" type="matrix" values="0 0 0 0 0 0 0 0 0 0 0 0 0 0 0 0 0 0 127 0" result="hardAlpha"/>
<feOffset dy="4"/>
<feGaussianBlur stdDeviation="2"/>
<feComposite in2="hardAlpha" operator="out"/>
<feColorMatrix type="matrix" values="0 0 0 0 0 0 0 0 0 0 0 0 0 0 0 0 0 0 0.25 0"/>
<feBlend mode="normal" in2="BackgroundImageFix" result="effect1_dropShadow"/>
<feBlend mode="normal" in="SourceGraphic" in2="effect1_dropShadow" result="shape"/>
</filter>
</defs>
</svg>
